<?xml version="1.0" encoding="UTF-8"?>
<svg version="1.1" xmlns="http://www.w3.org/2000/svg" width="413" height="148">
<path d="M0 0 C0.99 0.33 1.98 0.66 3 1 C3.33 6.61 3.66 12.22 4 18 C5.959375 18.144375 7.91875 18.28875 9.9375 18.4375 C15.875 18.875 15.875 18.875 17 20 C17.23192865 21.51469448 17.41215238 23.03754562 17.5625 24.5625 C17.64628906 25.38878906 17.73007813 26.21507813 17.81640625 27.06640625 C17.87699219 27.70449219 17.93757812 28.34257813 18 29 C22.9763888 27.65970972 27.72792012 26.01560898 32.5 24.0625 C33.12519531 23.81048828 33.75039062 23.55847656 34.39453125 23.29882812 C38.62080369 21.58819404 42.81411893 19.80704917 47 18 C47.98620601 21.30933275 48.14729857 24.34465327 48.18945312 27.79077148 C48.21452942 29.53794716 48.21452942 29.53794716 48.2401123 31.32041931 C48.26047546 33.20175316 48.26047546 33.20175316 48.28125 35.12109375 C48.30937695 37.09515816 48.33750903 39.06922251 48.36594391 41.04328251 C48.41457238 44.50797176 48.45708493 47.97273605 48.5 51.4375 C48.55120455 55.56768053 48.60350528 59.69782512 48.66296387 63.82789612 C48.69956694 66.39875123 48.73201513 68.96966956 48.7598877 71.54063416 C48.78496399 73.29253807 48.78496399 73.29253807 48.81054688 75.07983398 C48.82307495 76.10479477 48.83560303 77.12975555 48.84851074 78.18577576 C48.91909021 81.01140971 48.91909021 81.01140971 49.63684082 83.74501038 C49.75668335 84.48915695 49.87652588 85.23330353 50 86 C48 88 48 88 45.75341797 88.22705078 C44.38660889 88.21134033 44.38660889 88.21134033 42.9921875 88.1953125 C41.51298828 88.18564453 41.51298828 88.18564453 40.00390625 88.17578125 C38.45509766 88.15064453 38.45509766 88.15064453 36.875 88.125 C35.83472656 88.11597656 34.79445312 88.10695313 33.72265625 88.09765625 C31.14820908 88.07403747 28.57421788 88.04110149 26 88 C24.9375 86.125 24.9375 86.125 24 84 C24.33 83.34 24.66 82.68 25 82 C25.10395417 80.64851673 25.14859814 79.292185 25.16113281 77.93676758 C25.17074036 77.09862015 25.1803479 76.26047272 25.19024658 75.39692688 C25.19449646 74.48863632 25.19874634 73.58034576 25.203125 72.64453125 C25.20882507 71.70953293 25.21452515 70.77453461 25.22039795 69.811203 C25.22985656 67.82816705 25.23638534 65.84511532 25.24023438 63.86206055 C25.24990553 60.84200139 25.28090646 57.82263272 25.3125 54.80273438 C25.31903356 52.87500404 25.32428264 50.94726883 25.328125 49.01953125 C25.3466452 47.67227715 25.3466452 47.67227715 25.36553955 46.29780579 C25.34607837 40.76048086 24.54100951 36.93568035 22 32 C20.68 32.33 19.36 32.66 18 33 C17.34 35.31 16.68 37.62 16 40 C12.37 40.33 8.74 40.66 5 41 C3.9605225 44.1184325 3.88505162 46.27475586 3.90234375 49.54296875 C3.90556641 50.61611328 3.90878906 51.68925781 3.91210938 52.79492188 C3.92048828 53.91447266 3.92886719 55.03402344 3.9375 56.1875 C3.94426758 57.88422852 3.94426758 57.88422852 3.95117188 59.61523438 C3.96296502 62.41020927 3.9794235 65.2050782 4 68 C5.41655793 68.0272415 6.83327045 68.04650467 8.25 68.0625 C9.03890625 68.07410156 9.8278125 68.08570312 10.640625 68.09765625 C12.90691002 68.00385306 14.8288895 67.63241063 17 67 C17.53518883 69.0379507 18.05254093 71.08059009 18.5625 73.125 C18.85253906 74.26195313 19.14257812 75.39890625 19.44140625 76.5703125 C20.01056927 80.06489384 19.78666101 82.57203347 19 86 C10.03560774 89.75331564 3.20496118 91.64016613 -6.1875 88.5 C-12.40657165 85.77250668 -15.67880795 81.37947019 -18.11328125 75.15234375 C-20.62313443 66.22964985 -20.16067927 56.85427602 -19.05859375 47.7421875 C-18.99557205 44.79277177 -19.35851565 43.42077491 -21 41 C-22.051875 40.38125 -22.051875 40.38125 -23.125 39.75 C-25 38 -25 38 -25.2578125 36.03515625 C-25.25073503 34.02161522 -25.13175333 32.00923832 -25 30 C-27.23339896 30.83254913 -27.23339896 30.83254913 -27.8515625 33.28515625 C-28.10679688 34.20167969 -28.36203125 35.11820313 -28.625 36.0625 C-28.88539062 36.98160156 -29.14578125 37.90070312 -29.4140625 38.84765625 C-29.60742188 39.55792969 -29.80078125 40.26820312 -30 41 C-33.79102751 42.01937998 -35.84079901 41.96978438 -39.4375 40.4375 C-42.71529118 39.24656921 -43.87305921 38.97922787 -47.4375 39.5625 C-50.41278121 41.23156019 -50.86083007 41.85007175 -52 45 C-52.30870991 48.45536706 -52.30870991 48.45536706 -52.265625 52.328125 C-52.26753845 53.0359613 -52.2694519 53.74379761 -52.27142334 54.4730835 C-52.27278176 55.96920121 -52.26910925 57.46533085 -52.26074219 58.96142578 C-52.25010107 61.22846661 -52.26061557 63.4947035 -52.2734375 65.76171875 C-52.2721146 67.22135589 -52.26954952 68.68099254 -52.265625 70.140625 C-52.26224121 72.11337402 -52.26224121 72.11337402 -52.25878906 74.12597656 C-51.97657804 78.35062239 -51.13985323 81.93297651 -50 86 C-54.37239988 88.91493325 -58.35802061 88.32970877 -63.5 88.3125 C-64.94439453 88.33666992 -64.94439453 88.33666992 -66.41796875 88.36132812 C-67.34222656 88.36197266 -68.26648438 88.36261719 -69.21875 88.36328125 C-70.4862207 88.36775269 -70.4862207 88.36775269 -71.77929688 88.37231445 C-74.48524445 87.9186458 -75.3234882 87.12576255 -77 85 C-77.33 84.34 -77.66 83.68 -78 83 C-78.88042969 83.42152344 -79.76085937 83.84304687 -80.66796875 84.27734375 C-81.82941406 84.82519531 -82.99085937 85.37304688 -84.1875 85.9375 C-85.33605469 86.48277344 -86.48460937 87.02804688 -87.66796875 87.58984375 C-90.53963787 88.80516913 -92.9125777 89.67132154 -96 90 C-100.13437218 88.22812621 -102.22106784 86.11963238 -104 82 C-104.1875 78.1875 -104.1875 78.1875 -104 75 C-107.62267014 76.20755671 -108.0317845 77.20740317 -110 80.375 C-114.42907113 87.4569002 -114.42907113 87.4569002 -118.41796875 88.8359375 C-124.73948396 90.06635936 -129.37669329 90.425105 -135 87 C-139.87850989 83.07598117 -141.52076531 79.66066016 -142.32421875 73.5234375 C-142.8059068 65.92347045 -140.82668729 60.85364203 -136 55 C-127.84021609 47.04169224 -119.05419797 45.53428624 -108 45 C-112.06939459 40.78066174 -112.06939459 40.78066174 -117.75 39.75 C-121.81319508 39.80161954 -124.5232349 40.81691494 -128 43 C-128.53625 43.5775 -129.0725 44.155 -129.625 44.75 C-130.07875 45.1625 -130.5325 45.575 -131 46 C-133.9386388 45.79584194 -134.88678127 45.12447028 -136.88671875 42.92578125 C-137.77810547 41.63220703 -137.77810547 41.63220703 -138.6875 40.3125 C-139.28949219 39.46300781 -139.89148438 38.61351562 -140.51171875 37.73828125 C-142.15081158 34.72252252 -142.7827888 32.41871538 -143 29 C-139.04484048 23.40822275 -132.08939927 20.03857759 -125.5390625 18.375 C-113.59040297 16.6102749 -102.40444097 18.63961115 -92.2265625 25.21484375 C-85.25393394 30.80517928 -82.67125132 38.48114225 -81 47 C-80.54196545 51.72852321 -80.40209006 56.43922679 -80.3125 61.1875 C-80.27833984 62.42564453 -80.24417969 63.66378906 -80.20898438 64.93945312 C-80.12736028 67.95954467 -80.05793502 70.97937708 -80 74 C-78.02 74.99 -78.02 74.99 -76 76 C-75.9505269 70.66147206 -75.91424575 65.32307786 -75.89013672 59.984375 C-75.88008509 58.16859614 -75.86644172 56.35283344 -75.84912109 54.53710938 C-75.82483594 51.92574065 -75.81350852 49.31458613 -75.8046875 46.703125 C-75.78920364 45.48728729 -75.78920364 45.48728729 -75.77340698 44.24688721 C-75.77261826 40.27626461 -75.94303559 37.42251221 -78 34 C-78 33.01 -78 32.02 -78 31 C-79.65 30.67 -81.3 30.34 -83 30 C-80.37976528 27.37976528 -78.21169915 27.15261303 -74.625 26.25 C-68.40576919 24.55734337 -63.01880482 22.24545073 -57.328125 19.171875 C-55 18 -55 18 -53 18 C-52.505 21.96 -52.505 21.96 -52 26 C-51.34 26 -50.68 26 -50 26 C-49.4225 25.236875 -48.845 24.47375 -48.25 23.6875 C-44.67984492 19.4231481 -41.55444204 18.17271578 -36.0625 17.5625 C-31.55502249 17.71014377 -28.7008258 19.5327828 -25 22 C-24.44699219 21.41734375 -23.89398438 20.8346875 -23.32421875 20.234375 C-20.95042186 17.95233833 -18.51023741 16.13413406 -15.8125 14.25 C-6.74588386 8.22141856 -6.74588386 8.22141856 0 0 Z M-115 55 C-117.47221553 57.97933667 -118.85084604 59.90620432 -119.375 63.75 C-119.19132424 66.19616789 -119.19132424 66.19616789 -117 68 C-112.59412706 68.59309828 -110.46297646 68.26095037 -106.5625 66.0625 C-103.50637872 62.41006237 -103.4058134 60.67472287 -103.59375 56.0859375 C-103.91840751 53.70485948 -103.91840751 53.70485948 -106 51 C-109.48740536 51 -112.2545564 53.01276354 -115 55 Z " fill="#000000" transform="translate(151,24)"/>
<path d="M0 0 C0.66 0 1.32 0 2 0 C3.18031238 3.84841348 3.33235351 7.758279 3.5625 11.75 C3.60568359 12.44738281 3.64886719 13.14476562 3.69335938 13.86328125 C3.79889596 15.57531922 3.8998991 17.28763561 4 19 C7.96 19 11.92 19 16 19 C17.13495819 22.40487457 17.36402865 25.42096431 17.625 29 C17.72039062 30.2375 17.81578125 31.475 17.9140625 32.75 C18 36 18 36 17 39 C13.90468901 40.5476555 10.6333237 40.44409451 7.21484375 40.71875 C5.02929332 40.7665741 5.02929332 40.7665741 4 42 C3.90075486 43.58736053 3.86920092 45.17907251 3.8671875 46.76953125 C3.86589844 47.74083984 3.86460937 48.71214844 3.86328125 49.71289062 C3.86714844 50.73576172 3.87101562 51.75863281 3.875 52.8125 C3.87113281 53.82376953 3.86726563 54.83503906 3.86328125 55.87695312 C3.86457031 56.85212891 3.86585938 57.82730469 3.8671875 58.83203125 C3.86887939 60.17358276 3.86887939 60.17358276 3.87060547 61.54223633 C3.99137974 63.83626391 4.35554247 65.80199665 5 68 C8.86986958 68.07442057 12.2735915 68.04702186 16 67 C20 78.09433962 20 78.09433962 20 83 C17.52655203 86.71017195 15.02105541 88.24624002 10.8125 89.375 C2.6157346 90.79105249 -5.06822882 89.74448376 -12 85 C-16.91263447 80.35291334 -18.74455352 74.2155797 -19.27026367 67.59790039 C-19.41019893 62.44198084 -19.43692983 57.2904284 -19.43945312 52.1328125 C-19.45814453 50.8746875 -19.47683594 49.6165625 -19.49609375 48.3203125 C-19.49887329 46.60739014 -19.49887329 46.60739014 -19.50170898 44.85986328 C-19.7122978 41.87542748 -19.7122978 41.87542748 -22.03149414 40.22998047 C-22.68110107 39.82408691 -23.33070801 39.41819336 -24 39 C-24 38.34 -24 37.68 -24 37 C-25.99874381 38.80838725 -27.14874903 40.27809601 -28.4375 42.6875 C-28.953125 43.450625 -29.46875 44.21375 -30 45 C-34.15602006 45 -36.02416257 44.29487014 -39.75 42.625 C-44.48543275 40.57646108 -48.95954732 39.0662496 -54 38 C-54 39.32 -54 40.64 -54 42 C-52.87464844 42.23783203 -52.87464844 42.23783203 -51.7265625 42.48046875 C-40.58744917 45.01973766 -31.6578883 48.26767398 -25 58 C-23.26013491 63.21959528 -22.88917678 69.08097575 -24.87109375 74.2890625 C-29.17208375 81.59369469 -34.81979751 86.15107841 -42.9453125 88.4765625 C-43.62335938 88.64929688 -44.30140625 88.82203125 -45 89 C-45.825 89.226875 -46.65 89.45375 -47.5 89.6875 C-56.81596498 90.85199562 -67.5689073 90.05000952 -75.75 85.0625 C-78.18053232 82.83451204 -78.55955925 82.15438092 -79 79 C-78.65454102 76.98535156 -78.65454102 76.98535156 -78.00390625 74.890625 C-77.66069336 73.75947266 -77.66069336 73.75947266 -77.31054688 72.60546875 C-77.06369141 71.82816406 -76.81683594 71.05085938 -76.5625 70.25 C-76.31951172 69.45722656 -76.07652344 68.66445312 -75.82617188 67.84765625 C-75.22645805 65.89564654 -74.61441879 63.94743117 -74 62 C-70.70690055 63.07909473 -67.45919484 64.1936021 -64.25 65.5 C-59.6198044 67.26772972 -54.87014519 68.15171651 -50 69 C-49.67 67.68 -49.34 66.36 -49 65 C-49.60585937 64.90203125 -50.21171875 64.8040625 -50.8359375 64.703125 C-61.18739834 62.85578737 -69.75662805 59.93149228 -77 52 C-79.87314606 47.5705665 -79.50696956 42.11649283 -79 37 C-77.79850691 31.94846702 -75.79587587 27.60121557 -72 24 C-59.56297489 16.670668 -47.85898307 16.63255275 -33.9375 20.1484375 C-30.92854951 21.02071304 -27.9638119 21.9856001 -25 23 C-24.61070312 22.24332031 -24.22140625 21.48664062 -23.8203125 20.70703125 C-21.770022 17.65799409 -20.03961102 16.50422114 -16.875 14.6875 C-10.41317183 10.76577958 -4.23454778 6.35182167 0 0 Z " fill="#000000" transform="translate(283,24)"/>
<path d="M0 0 C1.18613892 0.00785522 1.18613892 0.00785522 2.39624023 0.01586914 C3.67724609 0.02070312 3.67724609 0.02070312 4.98413086 0.02563477 C5.88196289 0.03401367 6.77979492 0.04239258 7.70483398 0.05102539 C8.6065332 0.05553711 9.50823242 0.06004883 10.43725586 0.06469727 C12.67234712 0.07652315 14.90730835 0.09300319 17.14233398 0.11352539 C20.03696921 6.28366889 22.38023234 12.47999251 24.39233398 18.98852539 C24.66045898 19.82899414 24.92858398 20.66946289 25.20483398 21.53540039 C27.14233398 27.72353815 27.14233398 27.72353815 27.14233398 31.11352539 C27.80233398 31.11352539 28.46233398 31.11352539 29.14233398 31.11352539 C29.28928711 30.52829102 29.43624023 29.94305664 29.58764648 29.34008789 C31.24050215 23.01364035 33.13618974 16.77292607 35.14233398 10.55102539 C35.39128418 9.75325684 35.64023437 8.95548828 35.89672852 8.13354492 C36.26580322 7.00795166 36.26580322 7.00795166 36.64233398 5.85961914 C36.85889648 5.18600342 37.07545898 4.5123877 37.29858398 3.81835938 C38.14233398 2.11352539 38.14233398 2.11352539 41.14233398 0.11352539 C43.13525391 -0.11352539 43.13525391 -0.11352539 45.37280273 -0.08178711 C46.57646484 -0.07211914 46.57646484 -0.07211914 47.80444336 -0.06225586 C48.63782227 -0.04549805 49.47120117 -0.02874023 50.32983398 -0.01147461 C51.59730469 0.00206055 51.59730469 0.00206055 52.89038086 0.01586914 C54.97448641 0.03941836 57.05844615 0.07528892 59.14233398 0.11352539 C60.43070084 3.97862596 59.47056016 6.68768606 58.45483398 10.48852539 C58.27057861 11.19879883 58.08632324 11.90907227 57.89648438 12.64086914 C55.85222844 20.41130056 53.66892505 28.15051247 50.77905273 35.65258789 C48.56254537 41.50145465 46.83551169 47.50696696 45.01733398 53.48852539 C41.89233788 63.63600651 38.68127394 73.74627073 35.26733398 83.80102539 C34.89850098 84.91074707 34.52966797 86.02046875 34.1496582 87.16381836 C33.6239624 88.69159912 33.6239624 88.69159912 33.08764648 90.25024414 C32.78358887 91.14445068 32.47953125 92.03865723 32.16625977 92.95996094 C31.14233398 95.11352539 31.14233398 95.11352539 28.14233398 97.11352539 C25.4323225 97.30873808 22.84906607 97.39242289 20.14233398 97.36352539 C19.0556543 97.37512695 19.0556543 97.37512695 17.94702148 97.38696289 C14.14844906 97.37294602 12.37396314 97.26794483 9.14233398 95.11352539 C9.8393087 88.94610962 11.50681408 83.38047883 13.50170898 77.51782227 C16.00959502 69.58338971 14.41882703 63.2632789 12.01733398 55.42602539 C11.80141602 54.70543945 11.58549805 53.98485352 11.36303711 53.24243164 C9.56778659 47.32866521 7.61389957 41.47040812 5.64233398 35.61352539 C3.42285491 29.01065064 1.23103048 22.40364546 -0.79516602 15.73852539 C-1.00657227 15.06756836 -1.21797852 14.39661133 -1.43579102 13.70532227 C-2.71527529 9.40991077 -3.13507468 5.58603245 -2.85766602 1.11352539 C-1.85766602 0.11352539 -1.85766602 0.11352539 0 0 Z " fill="#000000" transform="translate(348.857666015625,42.886474609375)"/>
<path d="M0 0 C0.01030746 0.88869781 0.02061493 1.77739563 0.03123474 2.69302368 C0.12932419 11.0794202 0.23185466 19.46574823 0.33933926 27.8520298 C0.39443869 32.16320957 0.44783743 36.47439627 0.49731445 40.78564453 C0.5451501 44.94836481 0.59749888 49.11100637 0.65294075 53.27363205 C0.6732776 54.85957242 0.69200453 56.44553431 0.70907402 58.03151321 C0.73331108 60.25757848 0.76333765 62.48349759 0.79467773 64.70947266 C0.81799416 66.60809555 0.81799416 66.60809555 0.84178162 68.54507446 C0.98985611 71.77849369 1.39193198 74.82422681 2 78 C3.85625 77.7834375 3.85625 77.7834375 5.75 77.5625 C6.79414063 77.44068359 6.79414063 77.44068359 7.859375 77.31640625 C9.95512663 77.00663274 11.95497613 76.54810324 14 76 C18.0024895 89.77127742 18.0024895 89.77127742 16 95 C9.56265286 99.02334196 2.19706068 99.55434804 -5.1875 98.3125 C-10.84006333 96.98918673 -14.49473126 94.79795988 -18.25 90.3125 C-22.32029899 82.60800549 -22.24893541 74.6401762 -22.08984375 66.09765625 C-22.06942512 63.80273647 -22.0492503 61.5078145 -22.02929688 59.21289062 C-21.98584765 55.63409818 -21.93739403 52.05545783 -21.88354492 48.47680664 C-21.83499476 44.99626202 -21.80530992 41.51591847 -21.77734375 38.03515625 C-21.75558578 36.97756607 -21.73382782 35.91997589 -21.71141052 34.83033752 C-21.65856659 26.8327449 -22.7557713 18.95672137 -27 12 C-27.99 11.67 -28.98 11.34 -30 11 C-30 10.34 -30 9.68 -30 9 C-29.22398437 8.86464844 -28.44796875 8.72929687 -27.6484375 8.58984375 C-19.51932376 6.96984137 -13.08110555 4.29876846 -5.8984375 0.328125 C-3 -1 -3 -1 0 0 Z " fill="#000000" transform="translate(330,15)"/>
<path d="M0 0 C3.76823284 2.20157149 6.34742733 4.95119696 8 9 C8.73780901 13.71854601 8.4597823 17.14385364 6.1875 21.375 C5.465625 22.24125 4.74375 23.1075 4 24 C3.35417969 24.81017578 3.35417969 24.81017578 2.6953125 25.63671875 C-0.29833237 28.04405068 -3.58001994 27.45781979 -7.26953125 27.35546875 C-11.97247511 26.7432114 -14.47897667 24.368921 -17.875 21.3125 C-19.67945745 17.60333746 -19.51310944 14.04161549 -19 10 C-17.30835942 5.28121312 -15.13951382 2.79417183 -11 0 C-7.13193767 -1.28935411 -3.87468958 -1.07670958 0 0 Z " fill="#000000" transform="translate(194,13)"/>
</svg>
